<svg width="36" height="35" viewBox="0 0 36 35" fill="none" xmlns="http://www.w3.org/2000/svg">
<g id="Vector">
<path d="M20 5C20 2.23858 22.2386 0 25 0H31C33.7614 0 36 2.23858 36 5V11C36 13.7614 33.7614 16 31 16H25C22.2386 16 20 13.7614 20 11V5Z" fill="black" fill-opacity="0.15"/>
<path d="M20 24C20 21.2386 22.2386 19 25 19H31C33.7614 19 36 21.2386 36 24V30C36 32.7614 33.7614 35 31 35H25C22.2386 35 20 32.7614 20 30V24Z" fill="black" fill-opacity="0.15"/>
<path d="M0 24C0 21.2386 2.23858 19 5 19H11C13.7614 19 16 21.2386 16 24V30C16 32.7614 13.7614 35 11 35H5C2.23858 35 0 32.7614 0 30V24Z" fill="black" fill-opacity="0.15"/>
<path d="M0 5C0 2.23858 2.23858 0 5 0H11C13.7614 0 16 2.23858 16 5V11C16 13.7614 13.7614 16 11 16H5C2.23858 16 0 13.7614 0 11V5Z" fill="black" fill-opacity="0.15"/>
</g>
</svg>
